<?xml version="1.0" encoding="UTF-8" standalone="no"?>
<!-- Created with Inkscape (http://www.inkscape.org/) -->

<svg
   width="100mm"
   height="30mm"
   viewBox="0 0 100 30"
   version="1.1"
   id="svg922"
   inkscape:export-filename="TitleBarLogo.svg"
   inkscape:export-xdpi="96"
   inkscape:export-ydpi="96"
   inkscape:version="1.2.2 (b0a8486541, 2022-12-01)"
   sodipodi:docname="Logo.svg"
   xmlns:inkscape="http://www.inkscape.org/namespaces/inkscape"
   xmlns:sodipodi="http://sodipodi.sourceforge.net/DTD/sodipodi-0.dtd"
   xmlns="http://www.w3.org/2000/svg"
   xmlns:svg="http://www.w3.org/2000/svg">
  <sodipodi:namedview
     id="namedview924"
     pagecolor="#ffffff"
     bordercolor="#000000"
     borderopacity="0.25"
     inkscape:showpageshadow="2"
     inkscape:pageopacity="0.0"
     inkscape:pagecheckerboard="0"
     inkscape:deskcolor="#d1d1d1"
     inkscape:document-units="mm"
     showgrid="false"
     inkscape:zoom="5.6568542"
     inkscape:cx="89.979338"
     inkscape:cy="46.934213"
     inkscape:window-width="1878"
     inkscape:window-height="1011"
     inkscape:window-x="42"
     inkscape:window-y="32"
     inkscape:window-maximized="1"
     inkscape:current-layer="text277" />
  <defs
     id="defs919" />
  <g
     inkscape:label="Layer 1"
     inkscape:groupmode="layer"
     id="layer1">
    <g
       id="g57"
       transform="matrix(0.20569424,0,0,0.20628131,0.62736925,1.2958182)"
       inkscape:export-filename="TitleBarLogo.svg"
       inkscape:export-xdpi="96"
       inkscape:export-ydpi="96">
      <path
         fill="#4289c1"
         d="M 27,21 H 9 C 6.791,21 5,22.791 5,25 V 36 H 31 V 25 c 0,-2.209 -1.791,-4 -4,-4 z"
         id="path9" />
      <path
         fill="#2a6797"
         d="m 10,27 h 1 v 9 h -1 z"
         id="path11" />
      <path
         fill="#fcab40"
         d="M 4.702,26.495 4.419,26.436 H 3.908 c 0,-0.058 0.023,-0.112 0.035,-0.169 C 3.595,26.052 3.397,25.642 3.485,25.219 3.597,24.677 4.128,24.329 4.671,24.44 l 2.091,0.433 h 1.676 c 0.863,0 1.562,0.7 1.562,1.564 V 28 H 6.253 c 0,0 -1.481,-0.669 -1.551,-1.505 z"
         id="path13" />
      <path
         fill="#ffdc5d"
         d="m 0,25.655 c 0,-0.432 0.35,-0.782 0.781,-0.782 l 4.69,0.782 h 3.747 c 0.432,0 0.781,0.351 0.781,0.781 V 28 H 5 L 0.781,26.437 c 0,0 -0.781,-0.35 -0.781,-0.782 z"
         id="path15" />
      <path
         fill="#4289c1"
         d="m 4,36 h 6 V 28 H 5 Z"
         id="path17" />
      <path
         fill="#2a6797"
         d="m 25,27 h 1 v 9 h -1 z"
         id="path19" />
      <path
         fill="#fcab40"
         d="m 31.298,26.495 0.283,-0.059 h 0.511 c 0,-0.058 -0.023,-0.112 -0.035,-0.169 0.348,-0.215 0.546,-0.625 0.458,-1.048 -0.112,-0.542 -0.642,-0.89 -1.185,-0.779 l -2.091,0.433 h -1.676 c -0.863,0 -1.562,0.7 -1.562,1.564 V 28 h 3.747 c -0.001,0 1.48,-0.669 1.55,-1.505 z"
         id="path21" />
      <path
         fill="#ffdc5d"
         d="m 36,25.655 c 0,-0.432 -0.35,-0.782 -0.781,-0.782 l -4.691,0.782 H 26.781 C 26.349,25.655 26,26.006 26,26.436 V 28 h 5 l 4.219,-1.563 c 0,0 0.781,-0.35 0.781,-0.782 z"
         id="path23" />
      <path
         fill="#4289c1"
         d="m 32,36 h -6 v -8 h 5 z"
         id="path25" />
      <path
         fill="#ffdc5d"
         d="m 9,7 v 10 c 0,4.971 4.029,9 9,9 4.971,0 9,-4.029 9,-9 V 7 Z"
         id="path27" />
      <path
         fill="#ffdc5d"
         d="m 10.847,13.715 c 0,1.58 -0.8,2.861 -1.788,2.861 -0.988,0 -1.788,-1.281 -1.788,-2.861 0,-1.58 0.801,-2.861 1.788,-2.861 0.987,0 1.788,1.281 1.788,2.861 z m 17.882,0 c 0,1.58 -0.8,2.861 -1.788,2.861 -0.988,0 -1.788,-1.281 -1.788,-2.861 0,-1.58 0.8,-2.861 1.788,-2.861 0.988,0 1.788,1.281 1.788,2.861 z"
         id="path29" />
      <path
         fill="#ffac33"
         d="m 18,0.823 c -7.019,0 -10.139,4.684 -10.139,8.588 0,3.903 1.343,4.986 1.56,3.903 0.78,-3.903 3.12,-5.101 3.12,-5.101 4.68,3.904 3.9,0.781 3.9,0.781 4.679,4.684 2.34,0 2.34,0 1.56,1.562 6.239,1.562 6.239,1.562 0,0 0.78,1.198 1.559,2.759 0.78,1.562 1.56,0 1.56,-3.903 0,-3.905 -3.9,-8.589 -10.139,-8.589 z"
         id="path31" />
      <path
         fill="#bf6952"
         d="m 19,19.5 h -2 c -0.276,0 -0.5,-0.224 -0.5,-0.5 0,-0.276 0.224,-0.5 0.5,-0.5 h 2 c 0.276,0 0.5,0.224 0.5,0.5 0,0.276 -0.224,0.5 -0.5,0.5 z M 20.5,23 H 20 c -0.276,0 -0.5,-0.224 -0.5,-0.5 0,-0.276 0.224,-0.5 0.5,-0.5 h 0.5 c 0.276,0 0.5,0.224 0.5,0.5 0,0.276 -0.224,0.5 -0.5,0.5 z"
         id="path33" />
      <path
         fill="#662113"
         d="m 14,16 c -0.552,0 -1,-0.448 -1,-1 v -1 c 0,-0.552 0.448,-1 1,-1 0.552,0 1,0.448 1,1 v 1 c 0,0.552 -0.448,1 -1,1 z m 8,0 c -0.553,0 -1,-0.448 -1,-1 v -1 c 0,-0.552 0.447,-1 1,-1 0.553,0 1,0.448 1,1 v 1 c 0,0.552 -0.447,1 -1,1 z"
         id="path35" />
    </g>
    <g
       aria-label="Just a
Game Engine"
       transform="scale(0.91454694,1.0934376)"
       id="text277"
       style="font-size:4.23333px;stroke-width:0.0382385">
      <path
         d="m 17.057856,4.3487215 q -0.122766,0 -0.2159,-0.016933 -0.09313,-0.0127 -0.160866,-0.029633 V 3.7687554 q 0.06773,0.016933 0.143933,0.029633 0.07197,0.0127 0.156633,0.0127 0.110067,0 0.198967,-0.042333 0.09313,-0.042333 0.143933,-0.1608666 0.0508,-0.1185332 0.0508,-0.3386664 V 0.43712482 h 0.639233 V 3.2649891 q 0,0.3894664 -0.122767,0.6265328 -0.118533,0.2412998 -0.334433,0.3471331 -0.2159,0.1100665 -0.499533,0.1100665 z"
         style="font-weight:bold;-inkscape-font-specification:'sans-serif Bold';text-align:center;text-anchor:middle;fill:#e0e0e0"
         id="path4695" />
      <path
         d="m 20.846684,1.1483242 v 2.3113981 h -0.4826 l -0.08467,-0.2963331 h -0.03387 q -0.110067,0.1777998 -0.3048,0.2582331 -0.1905,0.080433 -0.406399,0.080433 -0.372534,0 -0.5969,-0.1989665 Q 18.713086,3.0998892 18.713086,2.6553896 V 1.1483242 h 0.630766 v 1.3504322 q 0,0.2455331 0.0889,0.372533 0.0889,0.1269999 0.283633,0.1269999 0.287866,0 0.393699,-0.1947331 Q 20.215918,2.6045897 20.215918,2.23629 V 1.1483242 Z"
         style="font-weight:bold;-inkscape-font-specification:'sans-serif Bold';text-align:center;text-anchor:middle;fill:#e0e0e0"
         id="path4697" />
      <path
         d="m 23.11998,2.7739229 q 0,0.3513663 -0.249766,0.5418662 -0.245533,0.1862665 -0.7366,0.1862665 -0.241299,0 -0.414866,-0.033867 Q 21.545182,3.4385556 21.371615,3.366589 V 2.8458895 q 0.186267,0.084667 0.402166,0.1396998 0.2159,0.055033 0.381,0.055033 0.186267,0 0.262467,-0.055033 0.08043,-0.055033 0.08043,-0.1439332 0,-0.059267 -0.03387,-0.1058332 -0.02963,-0.046567 -0.135466,-0.1058333 -0.105834,-0.059267 -0.3302,-0.1523998 -0.2159,-0.093133 -0.3556,-0.1820332 -0.1397,-0.093133 -0.207433,-0.2201332 -0.06773,-0.1312332 -0.06773,-0.3259663 0,-0.3217331 0.249766,-0.4825996 0.249767,-0.1608666 0.664633,-0.1608666 0.2159,0 0.410633,0.042333 0.194733,0.042333 0.402166,0.1396999 l -0.1905,0.4529663 q -0.169333,-0.071967 -0.321733,-0.1185332 -0.152399,-0.0508 -0.309033,-0.0508 -0.279399,0 -0.279399,0.1523999 0,0.055033 0.03387,0.1015999 0.0381,0.042333 0.1397,0.093133 0.105833,0.0508 0.309033,0.1354666 0.198967,0.080433 0.3429,0.1693332 0.143933,0.084667 0.220133,0.2158998 0.08043,0.1269999 0.08043,0.3344331 z"
         style="font-weight:bold;-inkscape-font-specification:'sans-serif Bold';text-align:center;text-anchor:middle;fill:#e0e0e0"
         id="path4699" />
      <path
         d="m 24.584711,2.9982893 q 0.105834,0 0.2032,-0.021167 0.09737,-0.021167 0.194733,-0.0508 v 0.4698996 q -0.1016,0.042333 -0.253999,0.071967 -0.148167,0.033867 -0.325967,0.033867 -0.207433,0 -0.372533,-0.067733 Q 23.869279,3.366589 23.771912,3.2014892 23.678779,3.032156 23.678779,2.7358229 V 1.6224572 H 23.378212 V 1.3557574 l 0.347133,-0.2116665 0.182034,-0.48683293 h 0.402166 V 1.1483242 h 0.647699 v 0.474133 h -0.647699 v 1.1133657 q 0,0.1312332 0.0762,0.1989665 0.0762,0.0635 0.198966,0.0635 z"
         style="font-weight:bold;-inkscape-font-specification:'sans-serif Bold';text-align:center;text-anchor:middle;fill:#e0e0e0"
         id="path4701" />
      <path
         d="m 27.497243,1.1017576 q 0.465667,0 0.7112,0.2031998 0.249766,0.1989665 0.249766,0.6138328 V 3.4597223 H 28.017943 L 27.895176,3.1464559 h -0.01693 q -0.148166,0.1862665 -0.313266,0.2709331 -0.1651,0.084667 -0.452967,0.084667 -0.309033,0 -0.512233,-0.1777999 -0.203199,-0.1820332 -0.203199,-0.5545662 0,-0.3682997 0.258233,-0.5418662 0.258233,-0.1777998 0.774699,-0.1947332 l 0.402166,-0.0127 v -0.1016 q 0,-0.1820331 -0.09737,-0.2666997 -0.09313,-0.084667 -0.262467,-0.084667 -0.169333,0 -0.330199,0.0508 -0.160867,0.046567 -0.321733,0.1185333 L 26.612477,1.3091908 q 0.186267,-0.097367 0.410633,-0.1523999 0.2286,-0.055033 0.474133,-0.055033 z m 0.0889,1.2953989 q -0.304799,0.00847 -0.423333,0.1100666 -0.118533,0.1015999 -0.118533,0.2666998 0,0.1439332 0.08467,0.2074331 0.08467,0.059267 0.220133,0.059267 0.2032,0 0.3429,-0.1185332 0.139699,-0.1227666 0.139699,-0.3428997 V 2.3886898 Z"
         style="font-weight:bold;-inkscape-font-specification:'sans-serif Bold';text-align:center;text-anchor:middle;fill:#e0e0e0"
         id="path4703" />
      <path
         d="m 10.519478,7.0538193 h 1.198032 v 1.566332 q -0.237066,0.080433 -0.495299,0.1269999 -0.254,0.046567 -0.579966,0.046567 -0.6773331,0 -1.0413994,-0.397933 -0.3640664,-0.397933 -0.3640664,-1.1599324 0,-0.4741329 0.1820332,-0.8212659 0.1862665,-0.3471331 0.5376329,-0.5376329 0.3513667,-0.1904999 0.8593657,-0.1904999 0.2413,0 0.474133,0.0508 0.232833,0.0508 0.423333,0.1354666 l -0.211666,0.5122329 q -0.1397,-0.071967 -0.3175,-0.1185333 -0.1778,-0.046567 -0.372533,-0.046567 -0.2794,0 -0.486833,0.1269999 -0.2032,0.1269999 -0.3175,0.359833 -0.1100663,0.2285998 -0.1100663,0.5418662 0,0.2963331 0.080433,0.5249329 0.080433,0.2285998 0.2540001,0.359833 0.173566,0.1269999 0.452966,0.1269999 0.135467,0 0.2286,-0.0127 0.09737,-0.0127 0.1778,-0.029633 V 7.5872188 h -0.5715 z"
         style="font-weight:bold;-inkscape-font-specification:'sans-serif Bold';text-align:center;text-anchor:middle;fill:#e0e0e0"
         id="path4705" />
      <path
         d="m 13.334646,6.3934198 q 0.465667,0 0.7112,0.2031998 0.249766,0.1989665 0.249766,0.6138329 v 1.540932 H 13.855346 L 13.732579,8.4381181 h -0.01693 q -0.148166,0.1862665 -0.313266,0.2709331 -0.1651,0.084667 -0.452967,0.084667 -0.309033,0 -0.512233,-0.1777999 -0.203199,-0.1820331 -0.203199,-0.5545662 0,-0.3682996 0.258233,-0.5418662 0.258233,-0.1777998 0.774699,-0.1947331 l 0.402166,-0.0127 V 7.2104525 q 0,-0.1820332 -0.09737,-0.2666998 -0.09313,-0.084667 -0.262467,-0.084667 -0.169333,0 -0.330199,0.0508 -0.160867,0.046567 -0.321733,0.1185333 L 12.44988,6.600853 q 0.186267,-0.097367 0.410633,-0.1523999 0.2286,-0.055033 0.474133,-0.055033 z m 0.0889,1.2953989 q -0.304799,0.00847 -0.423333,0.1100666 -0.118533,0.1015999 -0.118533,0.2666998 0,0.1439332 0.08467,0.2074331 0.08467,0.059267 0.220133,0.059267 0.2032,0 0.3429,-0.1185332 0.139699,-0.1227665 0.139699,-0.3428997 V 7.6803521 Z"
         style="font-weight:bold;-inkscape-font-specification:'sans-serif Bold';text-align:center;text-anchor:middle;fill:#e0e0e0"
         id="path4707" />
      <path
         d="m 17.656876,6.3976531 q 0.3937,0 0.592667,0.2031999 0.203199,0.1989665 0.203199,0.6434661 V 8.7513845 H 17.821976 V 7.4009523 q 0,-0.4995329 -0.347133,-0.4995329 -0.249766,0 -0.355599,0.1777998 Q 17.01341,7.2570191 17.01341,7.5914521 V 8.7513845 H 16.382644 V 7.4009523 q 0,-0.4995329 -0.347133,-0.4995329 -0.262466,0 -0.364066,0.1989665 -0.09737,0.1947332 -0.09737,0.5630328 V 8.7513845 H 14.943312 V 6.4399864 h 0.4826 l 0.08467,0.2963331 h 0.03387 q 0.105833,-0.1777998 0.287866,-0.2582331 0.186267,-0.080433 0.385233,-0.080433 0.254,0 0.4318,0.084667 0.1778,0.080433 0.270933,0.2539998 h 0.05503 q 0.105834,-0.1777998 0.2921,-0.2582331 0.1905,-0.080433 0.389466,-0.080433 z"
         style="font-weight:bold;-inkscape-font-specification:'sans-serif Bold';text-align:center;text-anchor:middle;fill:#e0e0e0"
         id="path4709" />
      <path
         d="m 20.052942,6.3976531 q 0.478367,0 0.757766,0.2751665 0.2794,0.2709331 0.2794,0.7746993 v 0.3047998 h -1.490132 q 0.0085,0.2666997 0.156633,0.4190996 0.1524,0.1523999 0.4191,0.1523999 0.224366,0 0.4064,-0.042333 0.182033,-0.046567 0.376766,-0.1396999 v 0.4868329 q -0.169333,0.084667 -0.359833,0.1227666 -0.186267,0.042333 -0.452966,0.042333 -0.347133,0 -0.613833,-0.1269999 -0.2667,-0.1312332 -0.4191,-0.3936997 -0.1524,-0.2624664 -0.1524,-0.6603994 0,-0.4063997 0.135467,-0.6730994 0.1397,-0.2709332 0.385233,-0.4063997 0.245533,-0.1354666 0.571499,-0.1354666 z m 0.0042,0.448733 q -0.182033,0 -0.3048,0.1185332 -0.118533,0.1185333 -0.1397,0.3682997 h 0.884766 Q 20.493209,7.1215525 20.387375,6.986086 20.281542,6.8463861 20.057176,6.8463861 Z"
         style="font-weight:bold;-inkscape-font-specification:'sans-serif Bold';text-align:center;text-anchor:middle;fill:#e0e0e0"
         id="path4711" />
      <path
         d="M 24.493705,8.7513845 H 22.753806 V 5.728787 h 1.739899 v 0.5249329 h -1.100666 v 0.6646328 h 1.024466 v 0.5249329 h -1.024466 v 0.7789327 h 1.100666 z"
         style="font-weight:bold;-inkscape-font-specification:'sans-serif Bold';text-align:center;text-anchor:middle;fill:#e0e0e0"
         id="path4713" />
      <path
         d="m 26.386001,6.3976531 q 0.372533,0 0.5969,0.2031999 0.224366,0.1989665 0.224366,0.6434661 V 8.7513845 H 26.576501 V 7.4009523 q 0,-0.2497665 -0.0889,-0.372533 -0.0889,-0.1269999 -0.283633,-0.1269999 -0.287867,0 -0.3937,0.1989665 -0.105833,0.1947332 -0.105833,0.5630328 V 8.7513845 H 25.073669 V 6.4399864 h 0.482599 l 0.08467,0.2963331 h 0.03387 q 0.110066,-0.1777998 0.300566,-0.2582331 0.194733,-0.080433 0.410633,-0.080433 z"
         style="font-weight:bold;-inkscape-font-specification:'sans-serif Bold';text-align:center;text-anchor:middle;fill:#e0e0e0"
         id="path4715" />
      <path
         d="m 28.604265,6.3976531 q 0.427566,0 0.668866,0.3386664 h 0.01693 l 0.0508,-0.2963331 h 0.5334 v 2.3156314 q 0,0.4952996 -0.2921,0.7535327 -0.2921,0.2582331 -0.863599,0.2582331 -0.245533,0 -0.4572,-0.029633 Q 28.053932,9.708117 27.854966,9.6319171 V 9.1281508 q 0.427566,0.1777999 0.901699,0.1777999 0.486833,0 0.486833,-0.5249329 v -0.046567 q 0,-0.071967 0.0042,-0.1481666 0.0085,-0.0762 0.0127,-0.1354665 h -0.01693 q -0.118534,0.1820332 -0.283633,0.2624664 -0.1651,0.080433 -0.372533,0.080433 -0.410633,0 -0.643467,-0.3132664 -0.228599,-0.3174997 -0.228599,-0.8805326 0,-0.5672662 0.237066,-0.8847659 0.237067,-0.3174998 0.651933,-0.3174998 z m 0.198966,0.5122329 q -0.444499,0 -0.444499,0.6984995 0,0.6900327 0.452966,0.6900327 0.2413,0 0.3556,-0.1354665 0.118533,-0.1396999 0.118533,-0.4825996 v -0.0762 q 0,-0.372533 -0.1143,-0.5333995 -0.1143,-0.1608666 -0.3683,-0.1608666 z"
         style="font-weight:bold;-inkscape-font-specification:'sans-serif Bold';text-align:center;text-anchor:middle;fill:#e0e0e0"
         id="path4717" />
      <path
         d="m 30.85216,5.5340539 q 0.1397,0 0.2413,0.067733 0.1016,0.0635 0.1016,0.2412998 0,0.1735666 -0.1016,0.2412998 -0.1016,0.067733 -0.2413,0.067733 -0.143933,0 -0.245533,-0.067733 -0.09737,-0.067733 -0.09737,-0.2412998 0,-0.1777998 0.09737,-0.2412998 0.1016,-0.067733 0.245533,-0.067733 z m 0.313267,0.9059325 V 8.7513845 H 30.534661 V 6.4399864 Z"
         style="font-weight:bold;-inkscape-font-specification:'sans-serif Bold';text-align:center;text-anchor:middle;fill:#e0e0e0"
         id="path4719" />
      <path
         d="m 33.138159,6.3976531 q 0.372533,0 0.5969,0.2031999 0.224366,0.1989665 0.224366,0.6434661 V 8.7513845 H 33.328659 V 7.4009523 q 0,-0.2497665 -0.0889,-0.372533 -0.0889,-0.1269999 -0.283633,-0.1269999 -0.287866,0 -0.3937,0.1989665 -0.105833,0.1947332 -0.105833,0.5630328 V 8.7513845 H 31.825827 V 6.4399864 h 0.4826 l 0.08467,0.2963331 h 0.03387 q 0.110066,-0.1777998 0.300566,-0.2582331 0.194733,-0.080433 0.410633,-0.080433 z"
         style="font-weight:bold;-inkscape-font-specification:'sans-serif Bold';text-align:center;text-anchor:middle;fill:#e0e0e0"
         id="path4721" />
      <path
         d="m 35.559622,6.3976531 q 0.478366,0 0.757766,0.2751665 0.2794,0.2709331 0.2794,0.7746993 v 0.3047998 h -1.490132 q 0.0085,0.2666997 0.156633,0.4190996 0.1524,0.1523999 0.4191,0.1523999 0.224366,0 0.406399,-0.042333 0.182033,-0.046567 0.376767,-0.1396999 v 0.4868329 q -0.169334,0.084667 -0.359833,0.1227666 -0.186267,0.042333 -0.452967,0.042333 -0.347133,0 -0.613833,-0.1269999 -0.266699,-0.1312332 -0.419099,-0.3936997 -0.1524,-0.2624664 -0.1524,-0.6603994 0,-0.4063997 0.135466,-0.6730994 0.1397,-0.2709332 0.385233,-0.4063997 0.245534,-0.1354666 0.5715,-0.1354666 z m 0.0042,0.448733 q -0.182033,0 -0.304799,0.1185332 -0.118534,0.1185333 -0.1397,0.3682997 h 0.884766 q -0.0042,-0.2116665 -0.110067,-0.347133 -0.105833,-0.1396999 -0.3302,-0.1396999 z"
         style="font-weight:bold;-inkscape-font-specification:'sans-serif Bold';text-align:center;text-anchor:middle;fill:#e0e0e0"
         id="path4723" />
    </g>
  </g>
</svg>
