<?xml version="1.0" encoding="UTF-8" standalone="no"?>
<!-- Created with Inkscape (http://www.inkscape.org/) -->

<svg
   width="135.48167mm"
   height="39.596386mm"
   viewBox="0 0 135.48167 39.596386"
   version="1.1"
   id="svg922"
   inkscape:export-filename="TitleBarLogo.svg"
   inkscape:export-xdpi="96"
   inkscape:export-ydpi="96"
   sodipodi:docname="logo_outlined.svg"
   inkscape:version="1.2.2 (b0a8486541, 2022-12-01)"
   xmlns:inkscape="http://www.inkscape.org/namespaces/inkscape"
   xmlns:sodipodi="http://sodipodi.sourceforge.net/DTD/sodipodi-0.dtd"
   xmlns="http://www.w3.org/2000/svg"
   xmlns:svg="http://www.w3.org/2000/svg">
  <sodipodi:namedview
     id="namedview924"
     pagecolor="#ffffff"
     bordercolor="#000000"
     borderopacity="0.25"
     inkscape:showpageshadow="2"
     inkscape:pageopacity="0.0"
     inkscape:pagecheckerboard="0"
     inkscape:deskcolor="#d1d1d1"
     inkscape:document-units="mm"
     showgrid="false"
     inkscape:zoom="0.98242742"
     inkscape:cx="256.5075"
     inkscape:cy="108.40495"
     inkscape:window-width="1878"
     inkscape:window-height="1011"
     inkscape:window-x="42"
     inkscape:window-y="32"
     inkscape:window-maximized="1"
     inkscape:current-layer="layer1" />
  <defs
     id="defs919" />
  <g
     inkscape:label="Layer 1"
     inkscape:groupmode="layer"
     id="layer1"
     transform="translate(-2.7917553,-7.2269772)">
    <g
       id="g57"
       transform="matrix(0.84853974,0,0,0.80062484,2.7917554,10.401197)"
       inkscape:export-filename="‎logo_outlined.svg"
       inkscape:export-xdpi="96"
       inkscape:export-ydpi="96">
      <path
         fill="#4289c1"
         d="M 27,21 H 9 C 6.791,21 5,22.791 5,25 V 36 H 31 V 25 c 0,-2.209 -1.791,-4 -4,-4 z"
         id="path9" />
      <path
         fill="#2a6797"
         d="m 10,27 h 1 v 9 h -1 z"
         id="path11" />
      <path
         fill="#fcab40"
         d="M 4.702,26.495 4.419,26.436 H 3.908 c 0,-0.058 0.023,-0.112 0.035,-0.169 C 3.595,26.052 3.397,25.642 3.485,25.219 3.597,24.677 4.128,24.329 4.671,24.44 l 2.091,0.433 h 1.676 c 0.863,0 1.562,0.7 1.562,1.564 V 28 H 6.253 c 0,0 -1.481,-0.669 -1.551,-1.505 z"
         id="path13" />
      <path
         fill="#ffdc5d"
         d="m 0,25.655 c 0,-0.432 0.35,-0.782 0.781,-0.782 l 4.69,0.782 h 3.747 c 0.432,0 0.781,0.351 0.781,0.781 V 28 H 5 L 0.781,26.437 c 0,0 -0.781,-0.35 -0.781,-0.782 z"
         id="path15" />
      <path
         fill="#4289c1"
         d="m 4,36 h 6 V 28 H 5 Z"
         id="path17" />
      <path
         fill="#2a6797"
         d="m 25,27 h 1 v 9 h -1 z"
         id="path19" />
      <path
         fill="#fcab40"
         d="m 31.298,26.495 0.283,-0.059 h 0.511 c 0,-0.058 -0.023,-0.112 -0.035,-0.169 0.348,-0.215 0.546,-0.625 0.458,-1.048 -0.112,-0.542 -0.642,-0.89 -1.185,-0.779 l -2.091,0.433 h -1.676 c -0.863,0 -1.562,0.7 -1.562,1.564 V 28 h 3.747 c -0.001,0 1.48,-0.669 1.55,-1.505 z"
         id="path21" />
      <path
         fill="#ffdc5d"
         d="m 36,25.655 c 0,-0.432 -0.35,-0.782 -0.781,-0.782 l -4.691,0.782 H 26.781 C 26.349,25.655 26,26.006 26,26.436 V 28 h 5 l 4.219,-1.563 c 0,0 0.781,-0.35 0.781,-0.782 z"
         id="path23" />
      <path
         fill="#4289c1"
         d="m 32,36 h -6 v -8 h 5 z"
         id="path25" />
      <path
         fill="#ffdc5d"
         d="m 9,7 v 10 c 0,4.971 4.029,9 9,9 4.971,0 9,-4.029 9,-9 V 7 Z"
         id="path27" />
      <path
         fill="#ffdc5d"
         d="m 10.847,13.715 c 0,1.58 -0.8,2.861 -1.788,2.861 -0.988,0 -1.788,-1.281 -1.788,-2.861 0,-1.58 0.801,-2.861 1.788,-2.861 0.987,0 1.788,1.281 1.788,2.861 z m 17.882,0 c 0,1.58 -0.8,2.861 -1.788,2.861 -0.988,0 -1.788,-1.281 -1.788,-2.861 0,-1.58 0.8,-2.861 1.788,-2.861 0.988,0 1.788,1.281 1.788,2.861 z"
         id="path29" />
      <path
         fill="#ffac33"
         d="m 18,0.823 c -7.019,0 -10.139,4.684 -10.139,8.588 0,3.903 1.343,4.986 1.56,3.903 0.78,-3.903 3.12,-5.101 3.12,-5.101 4.68,3.904 3.9,0.781 3.9,0.781 4.679,4.684 2.34,0 2.34,0 1.56,1.562 6.239,1.562 6.239,1.562 0,0 0.78,1.198 1.559,2.759 0.78,1.562 1.56,0 1.56,-3.903 0,-3.905 -3.9,-8.589 -10.139,-8.589 z"
         id="path31" />
      <path
         fill="#bf6952"
         d="m 19,19.5 h -2 c -0.276,0 -0.5,-0.224 -0.5,-0.5 0,-0.276 0.224,-0.5 0.5,-0.5 h 2 c 0.276,0 0.5,0.224 0.5,0.5 0,0.276 -0.224,0.5 -0.5,0.5 z M 20.5,23 H 20 c -0.276,0 -0.5,-0.224 -0.5,-0.5 0,-0.276 0.224,-0.5 0.5,-0.5 h 0.5 c 0.276,0 0.5,0.224 0.5,0.5 0,0.276 -0.224,0.5 -0.5,0.5 z"
         id="path33" />
      <path
         fill="#662113"
         d="m 14,16 c -0.552,0 -1,-0.448 -1,-1 v -1 c 0,-0.552 0.448,-1 1,-1 0.552,0 1,0.448 1,1 v 1 c 0,0.552 -0.448,1 -1,1 z m 8,0 c -0.553,0 -1,-0.448 -1,-1 v -1 c 0,-0.552 0.447,-1 1,-1 0.553,0 1,0.448 1,1 v 1 c 0,0.552 -0.447,1 -1,1 z"
         id="path35" />
    </g>
    <text
       xml:space="preserve"
       style="font-size:16.9391px;fill:#000000;stroke-width:0.153007"
       x="91.787727"
       y="18.908533"
       id="text277"
       inkscape:export-filename="just_a_game_engine.png"
       inkscape:export-xdpi="96"
       inkscape:export-ydpi="96"
       transform="scale(0.94285828,1.0606048)"><tspan
         id="tspan275"
         style="font-style:normal;font-variant:normal;font-weight:bold;font-stretch:normal;font-size:16.9391px;font-family:sans-serif;-inkscape-font-specification:'sans-serif Bold';text-align:center;text-anchor:middle;fill:#2c2c2c;fill-opacity:1;stroke-width:0.153007"
         x="91.787727"
         y="18.908533"
         sodipodi:role="line">Just a</tspan><tspan
         style="font-style:normal;font-variant:normal;font-weight:bold;font-stretch:normal;font-size:16.9391px;font-family:sans-serif;-inkscape-font-specification:'sans-serif Bold';text-align:center;text-anchor:middle;fill:#2c2c2c;fill-opacity:1;stroke-width:0.153007"
         x="91.787727"
         y="40.082409"
         sodipodi:role="line"
         id="tspan333">Game Engine</tspan></text>
  </g>
</svg>
